# xmcd CD database file
#
# Track frame offsets:
#	182
#	16767
#	45982
#	63790
#	84845
#	111797
#	124192
#	138192
#	151560
#
# Disc length: 2323 seconds
#
# Revision: 3
# Processed by: cddbd v1.4PL0 Copyright (c) Steve Scherf et al.
# Submitted via: CDex 1.50
#
DISCID=58091109
DTITLE=The J. Geils Band - Best Of The J. Geils Band
DYEAR=1979
DGENRE=
TTITLE0=Southside Shuffle
TTITLE1=Give it To Me
TTITLE2=Where Did Our Love Go
TTITLE3=(Ain't Nothin' But A) House Party
TTITLE4=Detroit Breakdown
TTITLE5=Whammer Jammer
TTITLE6=I Do
TTITLE7=Musta Got Lost
TTITLE8=Looking For a Love
EXTD=YEAR: 1979
EXTT0=
EXTT1=
EXTT2=
EXTT3=
EXTT4=
EXTT5=
EXTT6=
EXTT7=
EXTT8=
PLAYORDER=
